<svg width="16" height="17" viewBox="0 0 16 17" fill="none" xmlns="http://www.w3.org/2000/svg">
<g opacity="0.5">
<path d="M6.93262 3.1333C9.30738 3.1333 11.2323 5.05837 11.2324 7.43311C11.2324 8.44873 10.8814 9.38107 10.293 10.1167L10.0127 10.4663L13.3564 13.8101C13.3628 13.8166 13.3663 13.825 13.3662 13.8335L13.3564 13.8569C13.3435 13.8698 13.3226 13.8697 13.3096 13.8569L9.96582 10.5132L9.61621 10.7935C8.88058 11.3819 7.94824 11.7329 6.93262 11.7329C4.55788 11.7328 2.63281 9.80786 2.63281 7.43311C2.63292 5.05844 4.55795 3.13341 6.93262 3.1333ZM6.93262 3.19971C4.59476 3.19981 2.69932 5.09525 2.69922 7.43311C2.69922 9.77105 4.5947 11.6664 6.93262 11.6665C9.27063 11.6665 11.166 9.77111 11.166 7.43311C11.1659 5.09519 9.27056 3.19971 6.93262 3.19971Z" fill="#09090B" stroke="#09090B"/>
</g>
</svg>
